# xmcd CD database file
#
# Track frame offsets:
#	183
#	14593
#	28540
#	42470
#	56195
#	69023
#	81858
#	94415
#	107743
#	122400
#	135095
#	148105
#	162115
#	175413
#	189518
#	202328
#	215370
#	229928
#	243265
#	257200
#	271060
#	283028
#	298140
#	311935
#	327113
#
# Disc length: 4550 seconds
#
# Revision: 1
# Processed by: cddbd v1.5.2PL0 Copyright (c) Steve Scherf et al.
# Submitted via: CDex 1.51
#
DISCID=7a11c419
DTITLE=Ella Fitzgerald - the complete recordings 1935-1937 - CD3
DYEAR=1991
DGENRE=Jazz
TTITLE0=This time it's real
TTITLE1=What do you know about love
TTITLE2=You can be mine (and someone else's too)
TTITLE3=We can't go on this way
TTITLE4=Saving myself for you
TTITLE5=If you only knew
TTITLE6=If you only knew
TTITLE7=Pack up your sins and go to the Devil
TTITLE8=MacPherson is Rehearsin' (to Swing)
TTITLE9=Everybody step
TTITLE10=Ella
TTITLE11=Wacky Dust
TTITLE12=Gotta pebble in my shoe
TTITLE13=I can't stop loving you
TTITLE14=Strickly from Dixie
TTITLE15=Woe is me
TTITLE16=I let a tear fall in the river
TTITLE17=FDR Jones
TTITLE18=I love each move you make
TTITLE19=It's Foxy
TTITLE20=I found my yellow basket
TTITLE21=Undecided
TTITLE22=Tain't what you do (It's the way that cha do it)
TTITLE23=One side of me
TTITLE24=My heart belongs to Daddy
EXTD=YEAR: 1991
EXTT0=
EXTT1=
EXTT2=
EXTT3=
EXTT4=
EXTT5=
EXTT6=
EXTT7=
EXTT8=
EXTT9=
EXTT10=
EXTT11=
EXTT12=
EXTT13=
EXTT14=
EXTT15=
EXTT16=
EXTT17=
EXTT18=
EXTT19=
EXTT20=
EXTT21=
EXTT22=
EXTT23=
EXTT24=
PLAYORDER=
